<svg width="56" height="54" viewBox="0 0 56 54" fill="none" xmlns="http://www.w3.org/2000/svg">
<rect x="0.489746" y="0.889648" width="55" height="52.9038" rx="26.4519" fill="white"/>
<path d="M33.2869 32.3813C32.9164 32.2769 32.637 32.0574 32.4484 31.7227C32.2607 31.3877 32.2124 31.0398 32.3036 30.679L33.5918 25.5832L20.7243 32.7291C20.3973 32.9107 20.056 32.9513 19.7004 32.8511C19.3461 32.7512 19.07 32.5365 18.8722 32.207C18.6744 31.8775 18.619 31.5398 18.7057 31.1939C18.7938 30.8484 19.0013 30.5848 19.3282 30.4032L32.1957 23.2573L26.9173 21.7694C26.5469 21.665 26.2656 21.4527 26.0734 21.1325C25.8817 20.8131 25.8315 20.473 25.9227 20.1122C26.0139 19.7515 26.2183 19.4829 26.5361 19.3064C26.8531 19.1304 27.1967 19.0946 27.5672 19.199L36.0404 21.5874C36.2256 21.6396 36.3831 21.7201 36.513 21.8288C36.6422 21.938 36.7533 22.0701 36.8463 22.2252C36.9394 22.3802 37.0028 22.5389 37.0365 22.701C37.0695 22.8636 37.0632 23.0351 37.0176 23.2155L34.92 31.5131C34.8364 31.8438 34.6361 32.0972 34.3191 32.2732C34.0014 32.4497 33.6573 32.4857 33.2869 32.3813Z" fill="black"/>
</svg>
