<svg width="56" height="55" viewBox="0 0 56 55" fill="none" xmlns="http://www.w3.org/2000/svg">
<rect x="0.17334" width="55" height="55" rx="27.5" fill="#C6C6C6"/>
<path d="M29.5584 34.7336C29.2919 34.4544 29.164 34.1171 29.1746 33.7215C29.1862 33.326 29.3252 32.9886 29.5917 32.7094L33.3562 28.7655H18.4981C18.1205 28.7655 17.8038 28.6315 17.548 28.3634C17.293 28.0963 17.1655 27.765 17.1655 27.3694C17.1655 26.9739 17.293 26.6421 17.548 26.3741C17.8038 26.1069 18.1205 25.9734 18.4981 25.9734H33.3562L29.5584 21.9946C29.2919 21.7154 29.1586 21.3836 29.1586 20.9992C29.1586 20.6158 29.2919 20.2845 29.5584 20.0052C29.8249 19.726 30.1416 19.5864 30.5085 19.5864C30.8745 19.5864 31.1908 19.726 31.4573 20.0052L37.5538 26.3922C37.687 26.5318 37.7817 26.683 37.8376 26.8459C37.8927 27.0088 37.9202 27.1833 37.9202 27.3694C37.9202 27.5556 37.8927 27.7301 37.8376 27.893C37.7817 28.0558 37.687 28.2071 37.5538 28.3467L31.424 34.7685C31.1797 35.0245 30.8745 35.1525 30.5085 35.1525C30.1416 35.1525 29.8249 35.0129 29.5584 34.7336Z" fill="black"/>
</svg>
